<?xml version="1.0" standalone="no"?><!DOCTYPE svg PUBLIC "-//W3C//DTD SVG 1.1//EN" "http://www.w3.org/Graphics/SVG/1.1/DTD/svg11.dtd"><svg t="1530694747210" class="icon" style="" viewBox="0 0 1261 1024" version="1.1" xmlns="http://www.w3.org/2000/svg" p-id="1505" xmlns:xlink="http://www.w3.org/1999/xlink" width="246.2890625" height="200"><defs><style type="text/css"></style></defs><path d="M1106.616 892.856l-795.8-0.376v-58.48h766.384V513.68H849.008a29.424 29.424 0 0 1-29.424-29.424V257.512H553.704c-16.248 0-29.416-13.168-29.416-29.424s13.168-29.432 29.416-29.432H408.88a29.424 29.424 0 0 1-0.008 58.856H310.816v98.096a29.424 29.424 0 0 1-58.832 0.112v144.768h0.016a29.416 29.416 0 0 1 58.8 0h0.016v392h-58.84V355.632 257.512H153.92c-16.248 0-29.416-13.168-29.416-29.424s13.168-29.432 29.416-29.432h98.064V100.568a29.424 29.424 0 1 1 58.832 0v98.096h586.856c4.592 0 8.944 1.056 12.824 2.936 2.224 0.712 4.248 1.872 5.928 3.512l209.656 204.664c0.744 0.656 1.456 1.344 2.128 2.072l2.384 2.328c2.832 2.76 4.328 6.504 4.608 10.688 0.544 2.232 0.832 4.568 0.832 6.968v431.616a29.408 29.408 0 0 1-29.416 29.408z m-29.416-448.568L885.856 257.52h-7.424v197.32h198.384l0.384 0.008v-10.56z" p-id="1506" fill="#d81e06"></path></svg>